<?xml version="1.0" standalone="no"?>
<!DOCTYPE svg PUBLIC "-//W3C//DTD SVG 20010904//EN"
 "http://www.w3.org/TR/2001/REC-SVG-20010904/DTD/svg10.dtd">
<svg version="1.0" xmlns="http://www.w3.org/2000/svg"
 width="700.000000pt" height="700.000000pt" viewBox="0 0 700.000000 700.000000"
 preserveAspectRatio="xMidYMid meet">
<metadata>
Created by potrace 1.14, written by Peter Selinger 2001-2017
</metadata>
<g transform="translate(0.000000,700.000000) scale(0.100000,-0.100000)"
fill="#000000" stroke="none">
<path d="M2778 5623 c-41 -17 -75 -48 -96 -88 -14 -27 -16 -100 -18 -640 -1
-335 -2 -613 -3 -617 0 -5 -267 -8 -591 -8 -474 0 -597 -3 -623 -14 -39 -16
-94 -76 -104 -114 -4 -15 -7 -304 -7 -642 0 -576 1 -617 18 -649 22 -42 50
-67 94 -87 47 -21 1047 -21 1098 1 19 8 34 12 34 9 0 -2 10 2 23 11 13 8 27
12 30 8 4 -3 7 -1 7 6 0 7 5 9 10 6 6 -3 10 1 10 9 0 9 7 16 15 16 8 0 15 6
15 13 0 8 4 7 10 -3 8 -12 10 -10 10 9 0 17 4 22 16 17 9 -3 12 -2 9 5 -8 12
14 41 25 34 5 -3 6 5 2 17 -5 21 -4 22 11 9 15 -12 17 -12 11 4 -5 12 -4 16 3
12 7 -5 9 0 6 13 -3 12 0 20 6 20 7 0 9 -6 5 -12 -4 -8 -3 -10 2 -5 5 5 9 20
9 35 1 14 7 28 14 30 9 3 11 0 6 -8 -5 -9 -4 -11 4 -6 9 6 9 11 0 22 -9 11 -8
14 5 14 17 0 17 1 21 39 1 13 7 26 12 30 5 3 13 14 16 24 4 11 16 21 27 24 11
3 21 10 21 17 1 6 2 16 4 21 1 6 3 15 3 22 1 7 9 10 19 6 11 -4 14 -3 9 6 -12
18 63 124 82 116 13 -5 13 -3 1 12 -12 15 -12 16 3 10 13 -4 15 -2 11 10 -4
10 -2 14 4 10 6 -4 13 3 16 14 3 12 10 18 16 15 5 -4 13 -1 17 5 4 8 3 9 -4 5
-26 -16 -10 14 22 42 19 17 32 32 29 35 -8 8 34 27 42 19 5 -4 5 -2 2 5 -9 14
2 43 15 43 6 0 4 -8 -3 -17 -12 -16 -11 -16 8 0 13 12 19 25 16 35 -5 11 -2
14 10 9 10 -4 16 -2 14 6 -1 7 3 11 10 10 7 -2 10 4 7 12 -4 11 1 15 17 15 17
0 20 3 11 9 -10 6 -10 10 2 20 8 7 20 10 25 6 7 -4 8 1 4 11 -5 13 -3 16 10
11 11 -4 14 -2 10 9 -3 8 1 14 11 14 9 0 16 5 16 10 0 18 64 70 80 64 8 -3 12
-2 8 1 -9 10 40 58 51 50 7 -4 8 0 4 11 -4 12 -3 15 5 10 7 -4 12 -1 12 10 0
11 6 15 19 11 15 -3 18 -1 14 11 -5 11 -2 14 10 9 10 -4 16 -2 14 4 -1 6 7 16
17 22 11 7 28 20 38 30 10 9 25 17 34 17 9 0 12 5 8 12 -5 8 -2 9 10 5 9 -4
15 -3 12 2 -3 5 2 15 11 22 14 12 16 12 9 -1 -4 -8 1 -5 12 7 11 12 22 19 26
16 3 -4 6 0 6 7 0 7 3 11 6 7 4 -3 14 2 23 11 9 10 12 11 6 3 -9 -12 -7 -12
12 -1 12 8 19 18 17 22 -3 4 2 8 10 8 9 0 16 5 16 11 0 5 5 7 10 4 6 -3 10 -1
10 5 0 6 4 9 9 6 5 -3 12 1 15 10 4 9 9 14 12 11 9 -9 33 16 26 27 -3 5 2 7
11 3 9 -3 19 -1 23 5 5 7 2 8 -7 4 -8 -5 -8 -2 2 6 9 7 21 23 28 36 7 14 18
21 26 18 8 -3 17 0 21 6 4 7 3 8 -4 4 -7 -4 -12 -3 -12 1 0 5 9 14 20 21 11 7
17 18 14 27 -8 19 14 47 30 38 6 -3 8 -3 4 2 -4 4 0 22 8 39 14 28 14 29 -1
12 -8 -11 -15 -24 -15 -30 0 -5 -2 -7 -5 -4 -7 7 20 70 29 68 4 -1 11 2 14 6
4 4 2 4 -5 0 -17 -10 -26 11 -13 31 11 17 11 17 6 1 -7 -24 1 -23 14 2 8 16 8
20 -2 18 -10 -2 -13 92 -14 487 0 270 4 498 8 507 7 14 5 16 -8 11 -14 -5 -15
-3 -4 18 7 13 9 21 5 16 -12 -10 -45 22 -39 38 3 7 0 16 -7 21 -8 5 -10 3 -4
-7 5 -8 -3 -5 -16 7 -13 12 -33 25 -44 29 -11 5 -291 10 -622 10 -496 2 -607
0 -635 -12z m162 -2427 c0 -3 -4 -8 -10 -11 -5 -3 -10 -1 -10 4 0 6 5 11 10
11 6 0 10 -2 10 -4z"/>
<path d="M4115 5571 c-6 -11 13 -26 22 -17 4 3 1 6 -6 6 -7 0 -9 5 -6 10 3 6
4 10 1 10 -3 0 -7 -4 -11 -9z"/>
<path d="M4155 5471 c-3 -5 -2 -12 3 -15 5 -3 9 1 9 9 0 17 -3 19 -12 6z"/>
<path d="M4155 5409 c-4 -6 -5 -12 -2 -15 2 -3 7 2 10 11 7 17 1 20 -8 4z"/>
<path d="M4155 5371 c-3 -5 -2 -12 3 -15 5 -3 9 1 9 9 0 17 -3 19 -12 6z"/>
<path d="M4155 5251 c-3 -5 -2 -12 3 -15 5 -3 9 1 9 9 0 17 -3 19 -12 6z"/>
<path d="M4155 5161 c-3 -5 -2 -12 3 -15 5 -3 9 1 9 9 0 17 -3 19 -12 6z"/>
<path d="M4155 5011 c-3 -5 -2 -12 3 -15 5 -3 9 1 9 9 0 17 -3 19 -12 6z"/>
<path d="M4155 4921 c-3 -5 -2 -12 3 -15 5 -3 9 1 9 9 0 17 -3 19 -12 6z"/>
<path d="M4153 4770 c1 -11 5 -20 9 -20 3 0 6 9 5 20 -1 11 -5 20 -9 20 -3 0
-6 -9 -5 -20z"/>
<path d="M4157 4733 c-10 -9 -9 -23 1 -23 5 0 9 7 9 15 0 17 -1 18 -10 8z"/>
<path d="M4157 4693 c-10 -9 -9 -23 1 -23 5 0 9 7 9 15 0 17 -1 18 -10 8z"/>
<path d="M4157 4653 c-10 -9 -9 -23 1 -23 5 0 9 7 9 15 0 17 -1 18 -10 8z"/>
<path d="M4157 4613 c-10 -9 -9 -23 1 -23 5 0 9 7 9 15 0 17 -1 18 -10 8z"/>
<path d="M4157 4573 c-10 -9 -9 -23 1 -23 5 0 9 7 9 15 0 17 -1 18 -10 8z"/>
<path d="M4157 4533 c-10 -9 -9 -23 1 -23 5 0 9 7 9 15 0 17 -1 18 -10 8z"/>
<path d="M4036 4233 c-6 -14 -5 -15 5 -6 7 7 10 15 7 18 -3 3 -9 -2 -12 -12z"/>
<path d="M5057 4234 c-1 -1 -51 -4 -112 -8 -60 -3 -119 -8 -130 -10 -11 -2
-47 -7 -80 -11 -329 -38 -692 -175 -960 -364 -171 -119 -402 -339 -565 -536
-41 -49 -77 -92 -80 -95 -17 -16 -148 -201 -210 -295 -117 -179 -244 -456
-266 -579 -13 -75 -15 -140 -15 -443 0 -225 3 -333 12 -362 16 -55 66 -111
125 -141 l49 -24 570 0 570 0 49 24 c54 28 91 66 117 125 17 37 19 78 19 543
l0 503 -22 -7 c-68 -20 -116 -63 -149 -131 -24 -48 -24 -52 -29 -446 -4 -285
-8 -400 -17 -405 -6 -4 -250 -7 -543 -7 -456 1 -532 3 -541 15 -6 9 -8 144 -6
355 4 361 4 362 57 465 55 107 217 209 391 246 51 10 126 23 169 28 25 3 63 8
85 11 22 2 74 7 116 9 42 3 110 8 150 10 41 3 119 8 174 11 315 18 462 41 666
106 576 183 936 616 1005 1208 7 62 12 151 8 151 -1 0 -19 -26 -38 -59 -161
-265 -463 -514 -808 -667 -229 -101 -507 -173 -728 -188 l-75 -5 75 13 c41 8
89 16 105 19 151 25 392 109 590 207 297 145 527 326 702 550 44 57 113 167
113 182 0 4 -537 7 -543 2z"/>
<path d="M3424 3758 l-19 -23 23 19 c21 18 27 26 19 26 -2 0 -12 -10 -23 -22z"/>
<path d="M3020 3312 c-13 -20 -28 -43 -33 -49 -5 -7 -7 -13 -4 -13 7 0 69 91
65 96 -2 1 -14 -14 -28 -34z"/>
<path d="M2875 3100 c-3 -5 -1 -10 4 -10 6 0 11 5 11 10 0 6 -2 10 -4 10 -3 0
-8 -4 -11 -10z"/>
</g>
</svg>
