<svg width="20" height="20" viewBox="0 0 16 16" fill="none" xmlns="http://www.w3.org/2000/svg">
<path opacity="0.4" d="M14.1666 6.10003C13.8399 5.58003 13.4666 5.11336 13.0799 4.69336L10.5666 7.20669C10.6466 7.45336 10.6932 7.72003 10.6932 8.00003C10.6932 9.49336 9.48657 10.6934 7.9999 10.6934C7.7199 10.6934 7.45324 10.6467 7.20657 10.5667L4.8999 12.8734C5.87324 13.42 6.92657 13.7067 7.9999 13.7067C9.18657 13.7067 10.3399 13.36 11.3932 12.7134C12.4466 12.06 13.3932 11.1067 14.1666 9.89336C14.8332 8.85336 14.8332 7.14669 14.1666 6.10003Z" fill="white"/>
<path d="M9.3466 6.65326L6.65326 9.3466C6.31326 8.99993 6.09326 8.51993 6.09326 7.99993C6.09326 6.95326 6.94659 6.09326 7.99993 6.09326C8.51993 6.09326 8.99993 6.31326 9.3466 6.65326Z" fill="white"/>
<path opacity="0.4" d="M12.1666 3.83329L9.90659 6.09329C9.41992 5.59995 8.74659 5.30662 7.99992 5.30662C6.50659 5.30662 5.30659 6.51329 5.30659 7.99995C5.30659 8.74662 5.60659 9.41995 6.09325 9.90662L3.83992 12.1666H3.83325C3.09325 11.5666 2.41325 10.8 1.83325 9.89329C1.16659 8.84662 1.16659 7.14662 1.83325 6.09995C2.60659 4.88662 3.55325 3.93329 4.60659 3.27995C5.65992 2.63995 6.81325 2.28662 7.99992 2.28662C9.48659 2.28662 10.9266 2.83329 12.1666 3.83329Z" fill="white"/>
<path d="M9.90672 8.00005C9.90672 9.04672 9.05339 9.90672 8.00005 9.90672C7.96005 9.90672 7.92672 9.90672 7.88672 9.89339L9.89339 7.88672C9.90672 7.92672 9.90672 7.96005 9.90672 8.00005Z" fill="white"/>
<path d="M14.5133 1.48667C14.3133 1.28667 13.9867 1.28667 13.7867 1.48667L1.48667 13.7933C1.28667 13.9933 1.28667 14.32 1.48667 14.52C1.58667 14.6133 1.71334 14.6667 1.84667 14.6667C1.98 14.6667 2.10667 14.6133 2.20667 14.5133L14.5133 2.20667C14.72 2.00667 14.72 1.68667 14.5133 1.48667Z" fill="white"/>
</svg>
