<svg width="1920" height="650" viewBox="0 0 1920 650" fill="none" xmlns="http://www.w3.org/2000/svg">
<path d="M0 105.948C0 48.4508 48.37 2.79639 105.772 6.11492L1825.77 105.552C1878.67 108.611 1920 152.399 1920 205.386V650H0V105.948Z" fill="#ECFFFC"/>
<circle cx="1239" cy="249" r="9" fill="#52AB98" fill-opacity="0.4"/>
<circle cx="1284.5" cy="249" r="9" fill="#52AB98" fill-opacity="0.4"/>
<circle cx="1330" cy="249" r="9" fill="#52AB98" fill-opacity="0.4"/>
<circle cx="1375.5" cy="249" r="9" fill="#52AB98" fill-opacity="0.4"/>
<circle cx="1421" cy="249" r="9" fill="#52AB98" fill-opacity="0.4"/>
<circle cx="1239" cy="287" r="9" fill="#52AB98" fill-opacity="0.4"/>
<circle cx="1284.5" cy="287" r="9" fill="#52AB98" fill-opacity="0.4"/>
<circle cx="1330" cy="287" r="9" fill="#52AB98" fill-opacity="0.4"/>
<circle cx="1375.5" cy="287" r="9" fill="#52AB98" fill-opacity="0.4"/>
<circle cx="1421" cy="287" r="9" fill="#52AB98" fill-opacity="0.4"/>
<circle cx="1239" cy="325" r="9" fill="#52AB98" fill-opacity="0.4"/>
<circle cx="1284.5" cy="325" r="9" fill="#52AB98" fill-opacity="0.4"/>
<circle cx="1330" cy="325" r="9" fill="#52AB98" fill-opacity="0.4"/>
<circle cx="1375.5" cy="325" r="9" fill="#52AB98" fill-opacity="0.4"/>
<circle cx="1421" cy="325" r="9" fill="#52AB98" fill-opacity="0.4"/>
<circle cx="1239" cy="363" r="9" fill="#52AB98" fill-opacity="0.4"/>
<circle cx="1284.5" cy="363" r="9" fill="#52AB98" fill-opacity="0.4"/>
<circle cx="1330" cy="363" r="9" fill="#52AB98" fill-opacity="0.4"/>
<circle cx="1375.5" cy="363" r="9" fill="#52AB98" fill-opacity="0.4"/>
<circle cx="1421" cy="363" r="9" fill="#52AB98" fill-opacity="0.4"/>
<circle cx="1239" cy="401" r="9" fill="#52AB98" fill-opacity="0.4"/>
<circle cx="1284.5" cy="401" r="9" fill="#52AB98" fill-opacity="0.4"/>
<circle cx="1330" cy="401" r="9" fill="#52AB98" fill-opacity="0.4"/>
<circle cx="1375.5" cy="401" r="9" fill="#52AB98" fill-opacity="0.4"/>
<circle cx="1421" cy="401" r="9" fill="#52AB98" fill-opacity="0.4"/>
</svg>
