<svg width="296" height="84" viewBox="0 0 296 84" fill="none" xmlns="http://www.w3.org/2000/svg">
<g opacity="0.4">
<path opacity="0.4" d="M214.74 31.44V52.43C214.74 54.26 216.18 55.74 217.96 55.74H234.68C237.29 55.74 239.69 54.3 240.98 51.97C245.86 43.09 252.97 35.68 261.51 30.53C264.11 28.97 265.73 26.13 265.73 23.04V6.59002C265.73 4.77002 264.28 3.27002 262.51 3.27002H242.12C240.34 3.27002 238.9 4.76002 238.9 6.59002V28.13H217.97C216.19 28.12 214.74 29.61 214.74 31.44Z" fill="#474748"/>
</g>
<path d="M213.61 31.44V52.43C213.61 54.26 215.05 55.74 216.83 55.74H233.55C236.16 55.74 238.56 54.3 239.85 51.97C244.73 43.09 251.84 35.68 260.38 30.53C262.98 28.97 264.6 26.13 264.6 23.04V6.59002C264.6 4.77002 263.15 3.27002 261.38 3.27002H240.99C239.21 3.27002 237.77 4.76002 237.77 6.59002V28.13H216.84C215.05 28.12 213.61 29.61 213.61 31.44Z" fill="url(#paint0_linear_723_1214)"/>
<path d="M264.78 59.1899V76.5299C264.78 78.9499 262.82 80.9099 260.4 80.9099H241.68C239.26 80.9099 237.3 78.9499 237.3 76.5299V65.8999C237.3 58.7199 244.86 48.7799 248.54 44.6099C257.59 34.3499 266.65 28.6899 284.45 28.6899H291.28C285.32 39.9599 270.14 46.1599 260.32 46.5299C271.38 46.6699 286.18 40.9299 292.36 29.5599C291.97 45.5299 280.95 55.0299 264.8 56.1799C255.14 56.8699 245.75 56.5899 242.46 61.4599C240.8 63.9199 240.96 66.1299 240.96 69.1499L240.97 76.5399C240.97 76.9399 241.3 77.2699 241.7 77.2699H260.42C260.82 77.2699 261.15 76.9399 261.15 76.5399C261.15 76.5399 261.15 67.4899 261.15 64.2899C261.13 59.5899 264.78 59.1899 264.78 59.1899Z" fill="url(#paint1_linear_723_1214)"/>
<path d="M41.73 53.84C41.35 49.34 41.17 41.48 41.17 30.24V24.62C41.17 15.82 40.95 8.58001 40.51 2.90001C41.57 2.71001 42.54 2.62001 43.41 2.62001C46.47 2.62001 48 3.81 48 6.18C48 6.55 47.94 7.8 47.81 9.93C47.43 16.42 47.25 22.17 47.25 27.16V43.17C47.25 51.97 47.47 59.22 47.91 64.9C46.91 65.15 45.88 65.27 44.82 65.27C42.7 65.27 41.07 64.43 39.95 62.74C37.39 58.81 32.96 51.27 26.65 40.12C20.34 28.98 14.94 20.03 10.45 13.29C10.39 15.66 10.36 26.56 10.36 45.97C10.36 54.4 10.95 60.58 12.14 64.51C11.02 65.01 9.7 65.26 8.21 65.26C6.71 65.26 5.65 64.86 5.03 64.04C4.4 63.23 4.09 61.86 4.09 59.92L4.28 43.34V24.61C4.28 14.19 3.69 7.07001 2.5 3.26001C3.69 2.76001 5.03 2.51001 6.53 2.51001C8.03 2.51001 9.12 2.73001 9.81 3.17001C12.49 4.79001 17.27 11.3 24.14 22.69C30.99 34.1 36.86 44.48 41.73 53.84Z" fill="url(#paint2_linear_723_1214)"/>
<path d="M96.7001 24.72L96.3201 45.98C96.3201 53.91 96.9101 60.0901 98.1001 64.5201C96.8501 65.0201 95.7001 65.2701 94.6401 65.2701C91.7701 65.2701 90.3301 63.71 90.3301 60.59C85.8401 64.15 80.8701 65.93 75.4401 65.93C66.5701 65.93 62.1401 61.53 62.1401 52.73L62.4201 36.06C62.4201 30.38 61.8901 25.66 60.8301 21.92C62.0801 21.42 63.4001 21.17 64.8101 21.17C66.2101 21.17 67.2701 21.53 67.9901 22.25C68.7101 22.97 69.0701 24.2 69.0701 25.95L68.5101 50.2C68.5101 53.57 69.3401 56.16 70.9901 57.97C72.6401 59.78 74.7801 60.69 77.4001 60.69C81.9001 60.69 86.1101 58.97 90.0401 55.54C89.9801 52.86 89.9501 47.86 89.9501 40.56C89.9501 33.26 89.7301 26.8901 89.2901 21.4601C90.2901 21.2701 91.3501 21.18 92.4701 21.18C95.2901 21.16 96.7001 22.34 96.7001 24.72Z" fill="url(#paint3_linear_723_1214)"/>
<path d="M112.71 26.4901C112.52 26.4901 109.62 26.71 104 27.15C103.81 26.59 103.72 25.7 103.72 24.48C103.72 23.26 104.19 22.45 105.12 22.05C106.06 21.64 107.65 21.44 109.9 21.44H112.52C112.39 17.26 112.21 13.76 111.96 10.95C112.9 10.76 113.93 10.67 115.05 10.67C118.05 10.67 119.55 11.86 119.55 14.23C119.55 15.11 119.42 17.54 119.18 21.53C127.11 21.53 132.35 21.38 134.91 21.06C135.16 21.56 135.29 22.36 135.29 23.45C135.29 24.54 134.96 25.31 134.31 25.75C133.65 26.19 132.44 26.44 130.66 26.5C128.88 26.56 124.99 26.59 119 26.59C118.87 33.33 118.81 39.91 118.81 46.3C118.81 52.7 119.42 56.74 120.64 58.43C121.86 60.12 123.82 60.9601 126.54 60.9601C129.26 60.9601 131.55 60.02 133.42 58.15C134.54 59.34 135.11 60.5201 135.11 61.7101C135.11 62.9001 134.3 63.9001 132.67 64.7101C131.05 65.5201 129.08 65.93 126.77 65.93C121.59 65.93 117.92 64.43 115.77 61.43C113.62 58.43 112.54 53.97 112.54 48.04C112.65 36.73 112.71 29.5501 112.71 26.4901Z" fill="url(#paint4_linear_723_1214)"/>
<path d="M142.77 59.93L142.96 43.35C142.96 34.42 142.74 27.12 142.31 21.44C143.31 21.25 144.37 21.16 145.49 21.16C148.17 21.16 149.52 22.35 149.52 24.72C149.52 24.85 149.5 25.27 149.47 25.98C149.44 26.7 149.42 27.37 149.42 27.99C150.67 26.06 152.34 24.32 154.43 22.79C156.52 21.26 158.44 20.49 160.19 20.49C163.56 20.49 165.25 21.71 165.25 24.14C165.25 25.33 164.62 26.73 163.38 28.35C162.01 27.17 160.48 26.57 158.79 26.57C157.11 26.57 155.39 27.26 153.64 28.63C151.89 30.01 150.42 31.82 149.24 34.06C149.18 36.18 149.15 40.8 149.15 47.92C149.15 55.04 149.74 60.56 150.93 64.5C149.81 65 148.48 65.25 146.95 65.25C145.42 65.25 144.34 64.85 143.72 64.03C143.08 63.24 142.77 61.86 142.77 59.93Z" fill="url(#paint5_linear_723_1214)"/>
<path d="M202.89 35.77L202.7 48.41C202.7 55.59 203.29 60.96 204.48 64.52C203.48 65.02 202.28 65.27 200.87 65.27C199.46 65.27 198.48 64.94 197.92 64.29C197.36 63.64 196.98 62.59 196.8 61.15C192.93 64.33 188.93 65.93 184.81 65.93C175.19 65.93 170.39 61.53 170.39 52.73C170.39 49.54 171.14 47.2 172.64 45.71C174.14 44.21 176.2 43.09 178.82 42.34C183.5 41.09 189.43 40.25 196.61 39.81C196.61 34.5 195.95 30.84 194.64 28.81C193.33 26.78 190.55 25.77 186.3 25.77C184.55 25.77 182.74 26.33 180.87 27.45C179 28.57 177.59 30.2 176.66 32.32C173.79 31.76 172.35 30.51 172.35 28.57C172.35 26.14 173.85 24.19 176.85 22.72C179.85 21.25 183.69 20.52 188.37 20.52C193.05 20.52 196.64 21.63 199.14 23.85C201.64 26.04 202.89 30.02 202.89 35.77ZM196.52 44.57C194.71 44.76 193.35 44.92 192.44 45.04C191.54 45.17 190.32 45.32 188.79 45.51C187.26 45.7 186.12 45.89 185.37 46.07C184.62 46.26 183.7 46.51 182.61 46.82C181.52 47.13 180.7 47.47 180.17 47.85C179.64 48.22 179.09 48.63 178.53 49.07C177.47 49.95 176.94 51.16 176.94 52.72C176.94 55.53 177.75 57.61 179.37 58.95C180.99 60.29 183.05 60.96 185.55 60.96C189.8 60.96 193.38 59.56 196.32 56.75C196.26 55.88 196.23 54.28 196.23 51.97C196.23 49.66 196.34 47.19 196.52 44.57Z" fill="url(#paint6_linear_723_1214)"/>
<defs>
<linearGradient id="paint0_linear_723_1214" x1="230.869" y1="4.68202" x2="248.849" y2="58.8723" gradientUnits="userSpaceOnUse">
<stop stop-color="#94D2BD"/>
<stop offset="0.9948" stop-color="#00A79D"/>
</linearGradient>
<linearGradient id="paint1_linear_723_1214" x1="292.337" y1="54.801" x2="237.293" y2="54.801" gradientUnits="userSpaceOnUse">
<stop stop-color="#5C96CC"/>
<stop offset="1" stop-color="#6F83BF"/>
</linearGradient>
<linearGradient id="paint2_linear_723_1214" x1="2.4873" y1="33.8932" x2="48.0009" y2="33.8932" gradientUnits="userSpaceOnUse">
<stop stop-color="#5C96CC"/>
<stop offset="1" stop-color="#6F83BF"/>
</linearGradient>
<linearGradient id="paint3_linear_723_1214" x1="60.831" y1="43.5396" x2="98.1022" y2="43.5396" gradientUnits="userSpaceOnUse">
<stop stop-color="#5C96CC"/>
<stop offset="1" stop-color="#6F83BF"/>
</linearGradient>
<linearGradient id="paint4_linear_723_1214" x1="103.72" y1="38.2948" x2="135.28" y2="38.2948" gradientUnits="userSpaceOnUse">
<stop stop-color="#5C96CC"/>
<stop offset="1" stop-color="#6F83BF"/>
</linearGradient>
<linearGradient id="paint5_linear_723_1214" x1="142.303" y1="42.8834" x2="165.247" y2="42.8834" gradientUnits="userSpaceOnUse">
<stop stop-color="#5C96CC"/>
<stop offset="1" stop-color="#6F83BF"/>
</linearGradient>
<linearGradient id="paint6_linear_723_1214" x1="170.395" y1="43.2115" x2="204.484" y2="43.2115" gradientUnits="userSpaceOnUse">
<stop stop-color="#5C96CC"/>
<stop offset="1" stop-color="#6F83BF"/>
</linearGradient>
</defs>
</svg>
