<svg width="60" height="63" viewBox="0 0 60 63" fill="none" xmlns="http://www.w3.org/2000/svg">
<g opacity="0.4">
<path d="M2.97876 24.2011V38.6653C2.97876 39.9251 3.96945 40.9458 5.19488 40.9458H16.6972C18.4876 40.9458 20.1428 39.953 21.026 38.3463C24.384 32.2266 29.2698 27.1194 35.1463 23.5711C36.9327 22.4947 38.0508 20.5411 38.0508 18.4082V7.06962C38.0508 5.81376 37.0521 4.78516 35.8346 4.78516H21.8098C20.5844 4.78516 19.5937 5.81376 19.5937 7.06962V21.9166H5.19886C3.96945 21.9166 2.97876 22.9412 2.97876 24.2011Z" fill="#474748"/>
</g>
<path d="M2.52515 24.2011V38.6653C2.52515 39.9251 3.51584 40.9458 4.74127 40.9458H16.2436C18.034 40.9458 19.6891 39.953 20.5724 38.3463C23.9304 32.2266 28.8162 27.1194 34.6927 23.5711C36.4791 22.4947 37.5971 20.5411 37.5971 18.4082V7.06962C37.5971 5.81376 36.5985 4.78516 35.381 4.78516H21.3562C20.1308 4.78516 19.1401 5.81376 19.1401 7.06962V21.9166H4.74525C3.51982 21.9166 2.52515 22.9412 2.52515 24.2011Z" fill="url(#paint0_linear_1665_2056)"/>
<path d="M37.7166 43.326V55.2745C37.7166 56.941 36.3678 58.2926 34.7047 58.2926H21.8297C20.1666 58.2926 18.8179 56.941 18.8179 55.2745V47.9507C18.8179 42.9991 24.018 36.1497 26.5445 33.2792C32.7671 26.2105 38.9977 22.3074 51.2361 22.3074H55.9349C51.8329 30.0737 41.3968 34.3476 34.6411 34.6028C42.2483 34.6985 52.4217 30.7435 56.6749 22.9054C56.4084 33.9131 48.825 40.4594 37.7205 41.2488C31.0801 41.7193 24.6188 41.5319 22.3589 44.8848C21.217 46.5832 21.3284 48.1062 21.3284 50.1833L21.3324 55.2745C21.3324 55.5536 21.5592 55.7769 21.8337 55.7769H34.7087C34.9872 55.7769 35.21 55.5496 35.21 55.2745C35.21 55.2745 35.21 49.0351 35.21 46.8304C35.206 43.6011 37.7166 43.326 37.7166 43.326Z" fill="url(#paint1_linear_1665_2056)"/>
<defs>
<linearGradient id="paint0_linear_1665_2056" x1="14.3973" y1="5.76281" x2="26.8078" y2="43.0919" gradientUnits="userSpaceOnUse">
<stop stop-color="#94D2BD"/>
<stop offset="0.9948" stop-color="#00A79D"/>
</linearGradient>
<linearGradient id="paint1_linear_1665_2056" x1="56.6698" y1="40.3016" x2="18.8149" y2="40.3016" gradientUnits="userSpaceOnUse">
<stop stop-color="#5C96CC"/>
<stop offset="1" stop-color="#6F83BF"/>
</linearGradient>
</defs>
</svg>
