<svg width="327" height="240" viewBox="0 0 327 240" fill="none" xmlns="http://www.w3.org/2000/svg">
<g clip-path="url(#clip0_1818_2184)">
<path opacity="0.2" fill-rule="evenodd" clip-rule="evenodd" d="M0 132.52C0 160.159 10.1815 185.344 26.936 204.378C46.157 226.221 74.0295 239.954 105.098 240C118.677 240.02 131.66 237.409 143.585 232.642C149.752 230.177 156.653 230.46 162.625 233.381C169.631 236.803 177.475 238.721 185.759 238.721C189.18 238.721 192.531 238.391 195.773 237.766C205.025 235.985 213.444 231.772 220.359 225.805C224.704 222.054 230.27 220.168 235.958 220.175H236.054C254.849 220.175 272.308 214.353 286.802 204.378C299.76 195.471 310.342 183.247 317.393 168.894C323.54 156.387 327 142.259 327 127.305C327 76.0181 286.279 34.4356 236.054 34.4356C230.934 34.4356 225.918 34.8772 221.024 35.7012C208.066 14.28 184.861 0 158.39 0C147.213 0 136.618 2.54512 127.134 7.10748C118.114 11.4322 110.095 17.5775 103.535 25.0667C81.2604 25.4293 60.6639 32.86 43.8064 45.261C17.2707 64.7702 0 96.5882 0 132.52H0Z" fill="url(#paint0_linear_1818_2184)"/>
<path opacity="0.545118" d="M190.605 29.0504C188.42 29.0504 186.236 28.2193 184.574 26.5563C181.248 23.2304 181.248 17.8193 184.574 14.494C187.898 11.1693 193.31 11.1681 196.635 14.494C199.961 17.8199 199.961 23.231 196.635 26.5563C194.973 28.2193 192.789 29.0504 190.605 29.0504V29.0504ZM190.605 17.8793C189.927 17.8793 189.249 18.1369 188.732 18.6534C187.701 19.6851 187.701 21.3646 188.732 22.3969C189.765 23.4287 191.443 23.4293 192.476 22.3969C193.508 21.3651 193.508 19.6857 192.476 18.6534C191.96 18.1375 191.282 17.8793 190.605 17.8793Z" fill="#C4CDD5"/>
<path opacity="0.545118" d="M123.552 228.194C121.368 228.194 119.183 227.362 117.521 225.7C114.195 222.374 114.195 216.963 117.521 213.638C120.845 210.312 126.258 210.312 129.583 213.638C132.909 216.963 132.909 222.375 129.583 225.7C127.921 227.363 125.736 228.194 123.552 228.194ZM123.552 217.023C122.874 217.023 122.196 217.28 121.68 217.797C120.648 218.829 120.648 220.508 121.68 221.54C122.713 222.573 124.391 222.573 125.424 221.54C126.455 220.509 126.455 218.829 125.424 217.797C124.908 217.281 124.23 217.023 123.552 217.023Z" fill="#C4CDD5"/>
<path d="M272.674 188.022C271.922 188.022 271.168 187.734 270.595 187.16L267.086 183.652L263.577 187.16C262.429 188.309 260.566 188.309 259.418 187.16C258.269 186.012 258.269 184.149 259.418 183.001L265.006 177.413C266.154 176.264 268.018 176.264 269.165 177.413L274.754 183.001C275.902 184.15 275.902 186.012 274.754 187.16C274.18 187.734 273.427 188.022 272.674 188.022Z" fill="#DFE3E8"/>
<path d="M65.2259 176.816C64.4735 176.816 63.72 176.529 63.1465 175.955L59.6377 172.446L56.1288 175.955C54.9812 177.103 53.1177 177.103 51.97 175.955C50.8212 174.806 50.8212 172.943 51.97 171.795L57.5583 166.207C58.7059 165.059 60.5694 165.059 61.7171 166.207L67.3053 171.795C68.4541 172.944 68.4541 174.806 67.3053 175.955C66.7312 176.528 65.9783 176.816 65.2259 176.816V176.816Z" fill="#D5DBE0"/>
<g clip-path="url(#clip1_1818_2184)">
<path d="M274.296 142.239H98.6819C98.2302 142.238 97.7971 142.058 97.4776 141.739C97.1582 141.419 96.9785 140.986 96.978 140.535V36.704C96.9785 36.2522 97.1582 35.8191 97.4776 35.4996C97.7971 35.1802 98.2302 35.0005 98.6819 35H274.296C274.748 35.0005 275.181 35.1802 275.5 35.4996C275.82 35.8191 276 36.2522 276 36.704V140.535C276 140.986 275.82 141.419 275.5 141.739C275.181 142.058 274.748 142.238 274.296 142.239V142.239ZM98.6819 35.6816C98.4109 35.6819 98.151 35.7897 97.9593 35.9814C97.7677 36.1731 97.6599 36.4329 97.6596 36.704V140.535C97.6599 140.806 97.7677 141.066 97.9593 141.257C98.151 141.449 98.4109 141.557 98.6819 141.557H274.296C274.567 141.557 274.827 141.449 275.019 141.257C275.21 141.066 275.318 140.806 275.318 140.535V36.704C275.318 36.4329 275.21 36.1731 275.019 35.9814C274.827 35.7897 274.567 35.6819 274.296 35.6816H98.6819Z" fill="#E6E6E6"/>
<path d="M169.561 43.2924C169.207 43.2984 168.869 43.4433 168.621 43.696C168.372 43.9487 168.233 44.2889 168.233 44.6434C168.233 44.9978 168.372 45.338 168.621 45.5907C168.869 45.8434 169.207 45.9884 169.561 45.9943H203.431C203.789 45.9996 204.134 45.8629 204.391 45.6142C204.648 45.3655 204.796 45.025 204.802 44.6675C204.809 44.3099 204.673 43.9644 204.425 43.7067C204.177 43.4489 203.837 43.3 203.48 43.2925L203.476 43.2924C203.461 43.2922 203.446 43.2922 203.431 43.2924H169.561Z" fill="#3F3D56"/>
<path d="M211.112 42.9162C211.062 42.9661 211.034 43.0337 211.034 43.1042C211.034 43.1747 211.062 43.2423 211.112 43.2922L211.112 43.2922L212.253 44.4334H209.439C209.369 44.4336 209.302 44.4617 209.252 44.5115C209.202 44.5614 209.174 44.6289 209.174 44.6992C209.174 44.7696 209.202 44.8371 209.252 44.8869C209.302 44.9368 209.369 44.9649 209.439 44.9651H212.253L211.112 46.1063C211.087 46.1309 211.068 46.1603 211.054 46.1925C211.041 46.2248 211.034 46.2593 211.034 46.2942C211.034 46.3291 211.041 46.3637 211.054 46.396C211.068 46.4282 211.087 46.4575 211.112 46.4822C211.137 46.5069 211.166 46.5265 211.198 46.5398C211.231 46.5532 211.265 46.5601 211.3 46.5601C211.335 46.5601 211.37 46.5532 211.402 46.5398C211.434 46.5265 211.463 46.5069 211.488 46.4822V46.4822L213.083 44.8872C213.133 44.8374 213.161 44.7697 213.161 44.6992C213.161 44.6287 213.133 44.5611 213.083 44.5113L211.488 42.9162C211.463 42.8916 211.434 42.872 211.402 42.8586C211.37 42.8453 211.335 42.8384 211.3 42.8384C211.265 42.8384 211.231 42.8453 211.198 42.8586C211.166 42.872 211.137 42.8916 211.112 42.9162L211.112 42.9162Z" fill="#E6E6E6"/>
<path d="M161.866 42.9162C161.916 42.9661 161.944 43.0337 161.944 43.1042C161.944 43.1747 161.916 43.2423 161.866 43.2922L161.866 43.2922L160.725 44.4334H163.539C163.574 44.4333 163.608 44.44 163.641 44.4533C163.673 44.4666 163.703 44.4861 163.727 44.5108C163.752 44.5354 163.772 44.5648 163.785 44.597C163.799 44.6293 163.806 44.6639 163.806 44.6989C163.806 44.7339 163.799 44.7685 163.786 44.8008C163.772 44.8332 163.753 44.8625 163.728 44.8872C163.703 44.912 163.674 44.9316 163.641 44.9449C163.609 44.9583 163.574 44.9651 163.539 44.9651H160.725L161.866 46.1063C161.891 46.131 161.91 46.1603 161.924 46.1925C161.937 46.2248 161.944 46.2593 161.944 46.2942C161.944 46.3292 161.937 46.3637 161.924 46.396C161.91 46.4282 161.891 46.4575 161.866 46.4822C161.841 46.5069 161.812 46.5265 161.78 46.5398C161.748 46.5532 161.713 46.5601 161.678 46.5601C161.643 46.5601 161.609 46.5532 161.576 46.5399C161.544 46.5265 161.515 46.5069 161.49 46.4822V46.4822L159.895 44.8872C159.845 44.8374 159.817 44.7697 159.817 44.6992C159.817 44.6287 159.845 44.5611 159.895 44.5113L161.49 42.9162C161.54 42.8664 161.608 42.8384 161.678 42.8384C161.749 42.8384 161.816 42.8664 161.866 42.9162L161.866 42.9162Z" fill="#E6E6E6"/>
<path d="M96.8765 147.958C95.3366 147.958 93.8312 147.501 92.5508 146.646C91.2703 145.79 90.2723 144.574 89.683 143.151C89.0937 141.728 88.9395 140.163 89.2399 138.652C89.5404 137.142 90.2819 135.754 91.3709 134.665C92.4598 133.576 93.8472 132.835 95.3575 132.534C96.8679 132.234 98.4334 132.388 99.8562 132.977C101.279 133.567 102.495 134.565 103.351 135.845C104.206 137.126 104.663 138.631 104.663 140.171C104.663 142.236 103.842 144.217 102.382 145.677C100.922 147.138 98.9416 147.958 96.8765 147.958Z" fill="#52AB98"/>
<path d="M99.9487 139.403H97.6445V137.099C97.6445 136.895 97.5636 136.7 97.4196 136.556C97.2755 136.411 97.0802 136.331 96.8765 136.331C96.6727 136.331 96.4774 136.411 96.3333 136.556C96.1893 136.7 96.1084 136.895 96.1084 137.099V139.403H93.8042C93.6005 139.403 93.4051 139.484 93.2611 139.628C93.1171 139.772 93.0361 139.967 93.0361 140.171C93.0361 140.375 93.1171 140.57 93.2611 140.714C93.4051 140.858 93.6005 140.939 93.8042 140.939H96.1084V143.244C96.1084 143.447 96.1893 143.643 96.3333 143.787C96.4774 143.931 96.6727 144.012 96.8764 144.012C97.0801 144.012 97.2755 143.931 97.4196 143.787C97.5636 143.643 97.6445 143.447 97.6445 143.244V140.939H99.9487C100.152 140.939 100.348 140.858 100.492 140.714C100.636 140.57 100.717 140.375 100.717 140.171C100.717 139.967 100.636 139.772 100.492 139.628C100.348 139.484 100.152 139.403 99.9487 139.403V139.403Z" fill="white"/>
<path d="M134.577 57.1243H111.177V73.0283H134.577V57.1243Z" fill="#DFE3E8"/>
<path d="M166.383 57.1243H142.983V73.0283H166.383V57.1243Z" fill="#DFE3E8"/>
<path d="M198.189 57.1243H174.789V73.0283H198.189V57.1243Z" fill="#DFE3E8"/>
<path d="M229.995 57.1243H206.595V73.0283H229.995V57.1243Z" fill="#DFE3E8"/>
<path d="M261.801 57.1243H238.401V73.0283H261.801V57.1243Z" fill="#DFE3E8"/>
<path d="M134.663 85.0698H111.263V100.974H134.663V85.0698Z" fill="#DFE3E8"/>
<path d="M166.469 85.0698H143.069V100.974H166.469V85.0698Z" fill="#DFE3E8"/>
<path d="M198.275 85.0698H174.875V100.974H198.275V85.0698Z" fill="#DFE3E8"/>
<path d="M230.081 85.0698H206.681V100.974H230.081V85.0698Z" fill="#DFE3E8"/>
<path d="M261.887 85.0698H238.487V100.974H261.887V85.0698Z" fill="#DFE3E8"/>
<path d="M134.749 113.016H111.349V128.92H134.749V113.016Z" fill="#DFE3E8"/>
<path d="M166.555 113.016H143.155V128.92H166.555V113.016Z" fill="#DFE3E8"/>
<path d="M198.361 113.016H174.96V128.92H198.361V113.016Z" fill="#DFE3E8"/>
<path d="M230.167 113.016H206.767V128.92H230.167V113.016Z" fill="#DFE3E8"/>
<path d="M261.972 113.016H238.572V128.92H261.972V113.016Z" fill="#DFE3E8"/>
<path d="M182.099 62.1226C182.099 63.4777 181.001 64.5762 179.646 64.5762C178.291 64.5762 177.192 63.4777 177.192 62.1226C177.192 60.7674 178.291 59.6689 179.646 59.6689C181.001 59.6689 182.099 60.7674 182.099 62.1226Z" fill="#C4CDD5" stroke="#7F93AA"/>
<path d="M149.839 90.0684C149.839 91.4235 148.74 92.522 147.386 92.522C146.031 92.522 144.932 91.4235 144.932 90.0684C144.932 88.7132 146.031 87.6147 147.386 87.6147C148.74 87.6147 149.839 88.7132 149.839 90.0684Z" fill="#C4CDD5" stroke="#7F93AA"/>
<path d="M182.099 118.014C182.099 119.369 181.001 120.468 179.646 120.468C178.291 120.468 177.192 119.369 177.192 118.014C177.192 116.659 178.291 115.56 179.646 115.56C181.001 115.56 182.099 116.659 182.099 118.014Z" fill="#C4CDD5" stroke="#7F93AA"/>
<path d="M212.133 93.022C213.764 93.022 215.086 91.6996 215.086 90.0684C215.086 88.4371 213.764 87.1147 212.133 87.1147C210.502 87.1147 209.18 88.4371 209.18 90.0684C209.18 91.6996 210.502 93.022 212.133 93.022Z" fill="#3F3D56"/>
<path d="M243.712 93.022C245.343 93.022 246.665 91.6996 246.665 90.0684C246.665 88.4371 245.343 87.1147 243.712 87.1147C242.081 87.1147 240.758 88.4371 240.758 90.0684C240.758 91.6996 242.081 93.022 243.712 93.022Z" fill="#3F3D56"/>
<path d="M147.386 120.968C149.017 120.968 150.339 119.645 150.339 118.014C150.339 116.383 149.017 115.06 147.386 115.06C145.754 115.06 144.432 116.383 144.432 118.014C144.432 119.645 145.754 120.968 147.386 120.968Z" fill="#3F3D56"/>
<path d="M69.9489 146.224C72.9785 146.224 75.4344 143.768 75.4344 140.739C75.4344 137.709 72.9785 135.253 69.9489 135.253C66.9193 135.253 64.4634 137.709 64.4634 140.739C64.4634 143.768 66.9193 146.224 69.9489 146.224Z" fill="#FFB8B8"/>
<path d="M67.9686 173.199C67.8996 173.199 67.8302 173.196 67.7605 173.19C67.4155 173.162 67.0804 173.06 66.7773 172.893C66.4743 172.726 66.2099 172.496 66.0017 172.219C65.7935 171.943 65.646 171.625 65.569 171.288C65.4921 170.95 65.4873 170.6 65.555 170.261C65.571 170.182 65.5911 170.104 65.6153 170.027L57.5191 160.451C57.2553 160.137 57.0999 159.746 57.076 159.336C57.0521 158.926 57.1609 158.519 57.3863 158.176L57.401 158.158L64.6885 150.972C65.0865 150.58 65.6237 150.363 66.1821 150.367C66.7405 150.371 67.2745 150.597 67.6665 150.994C68.0586 151.392 68.2768 151.929 68.273 152.488C68.2693 153.046 68.044 153.58 67.6466 153.973C67.6374 153.982 67.6282 153.99 67.6189 153.999L62.3408 159.017L68.119 168.292C68.2285 168.298 68.3374 168.311 68.4449 168.332C69.0426 168.451 69.5747 168.789 69.9378 169.278C70.3008 169.768 70.469 170.375 70.4097 170.981C70.3503 171.588 70.0676 172.151 69.6165 172.561C69.1654 172.971 68.5781 173.198 67.9686 173.199Z" fill="#FFB8B8"/>
<path d="M78.9834 217.088H81.7217L83.0242 206.526L78.9829 206.526L78.9834 217.088Z" fill="#FFB8B8"/>
<path d="M78.2852 216.194L83.6775 216.194H83.6777C84.129 216.194 84.5758 216.283 84.9927 216.456C85.4097 216.628 85.7885 216.881 86.1076 217.201C86.4267 217.52 86.6798 217.899 86.8525 218.315C87.0252 218.732 87.1141 219.179 87.1141 219.631V219.742L78.2853 219.743L78.2852 216.194Z" fill="#2F2E41"/>
<path d="M51.7681 213.302L54.1207 214.703L60.6434 206.295L57.171 204.227L51.7681 213.302Z" fill="#FFB8B8"/>
<path d="M51.6257 212.177L56.259 214.936L56.2592 214.936C57.0423 215.402 57.608 216.16 57.8321 217.044C58.0561 217.927 57.92 218.863 57.4538 219.647L57.4537 219.647L57.3966 219.743L49.8105 215.226L51.6257 212.177Z" fill="#2F2E41"/>
<path d="M82.3677 213.358H79.3016C79.0534 213.358 78.8138 213.266 78.6292 213.1C78.4446 212.934 78.3281 212.706 78.3023 212.459L75.2112 183.401C75.2034 183.328 75.1717 183.259 75.1211 183.206C75.0705 183.152 75.0037 183.117 74.9311 183.106C74.8585 183.094 74.784 183.106 74.7193 183.141C74.6545 183.176 74.603 183.231 74.5727 183.298L68.9963 195.647L59.1237 211.747C58.9959 211.953 58.7981 212.106 58.5664 212.179C58.3347 212.251 58.0847 212.238 57.8621 212.141L53.9181 210.406C53.7877 210.348 53.671 210.264 53.5757 210.158C53.4804 210.052 53.4087 209.927 53.3654 209.791C53.3221 209.655 53.3082 209.512 53.3245 209.37C53.3408 209.229 53.387 209.092 53.4601 208.97L62.5357 193.772L65.3192 180.968C64.4438 175.415 68.1967 167.159 68.2347 167.076L68.2533 167.036L78.5909 162.995L78.6427 163.059C82.7196 176.438 85.2038 190.837 83.3695 212.437C83.3469 212.687 83.2318 212.921 83.0466 213.091C82.8613 213.261 82.6193 213.356 82.3677 213.358V213.358Z" fill="#2F2E41"/>
<path d="M67.8373 168.389L67.7892 168.288C67.7662 168.239 65.4675 163.391 63.6956 158.209C63.355 157.207 63.2263 156.145 63.3175 155.091C63.4087 154.036 63.7179 153.012 64.2255 152.083C64.7397 151.145 65.4431 150.324 66.2913 149.672C67.1394 149.019 68.1137 148.55 69.1526 148.294V148.294C70.956 147.862 72.8547 148.092 74.5028 148.943C76.1508 149.793 77.4385 151.207 78.1313 152.928C79.5369 156.443 79.0889 160.194 78.6674 163.145L78.659 163.204L78.6052 163.23L67.8373 168.389Z" fill="#52AB98"/>
<path d="M76.6 137.64H67.8896V133.843C69.8015 133.083 71.6723 132.437 72.8032 133.843C73.8102 133.843 74.7759 134.243 75.4879 134.955C76.2 135.667 76.6 136.633 76.6 137.64H76.6Z" fill="#2F2E41"/>
<path d="M67.4074 133.173C62.2002 133.173 60.7427 139.7 60.7427 143.383C60.7427 145.436 61.6714 146.171 63.1307 146.419L63.6461 143.67L64.8532 146.538C65.2632 146.54 65.6938 146.532 66.1403 146.523L66.5496 145.681L67.4622 146.508C71.1176 146.514 74.072 147.047 74.072 143.383C74.072 139.7 72.7938 133.173 67.4074 133.173Z" fill="#2F2E41"/>
<path d="M90.5529 140.478C90.5861 140.539 90.6167 140.601 90.6447 140.665C90.7849 140.982 90.8565 141.324 90.855 141.671C90.8535 142.017 90.7789 142.359 90.636 142.674C90.4931 142.989 90.2852 143.271 90.0259 143.501C89.7666 143.73 89.4618 143.902 89.1314 144.005C89.0545 144.029 88.9764 144.049 88.8975 144.064L84.376 155.761C84.2265 156.143 83.9577 156.467 83.6096 156.685C83.2615 156.902 82.8525 157.001 82.4435 156.968L82.4207 156.964L72.6208 154.013C72.0858 153.852 71.6367 153.485 71.3724 152.993C71.108 152.501 71.05 151.924 71.2111 151.389C71.3721 150.854 71.7392 150.405 72.2313 150.14C72.7235 149.876 73.3006 149.818 73.8356 149.979C73.8478 149.983 73.86 149.986 73.8721 149.99L80.8062 152.217L86.1744 142.699C86.127 142.6 86.0865 142.498 86.0534 142.394C85.8715 141.812 85.9123 141.183 86.1679 140.63C86.4234 140.077 86.8755 139.638 87.4363 139.399C87.997 139.161 88.6265 139.139 89.2025 139.338C89.7784 139.537 90.2597 139.944 90.553 140.478L90.5529 140.478Z" fill="#FFB8B8"/>
<path d="M91.6896 220H46.2367C46.1739 220 46.1137 219.975 46.0693 219.931C46.0249 219.886 46 219.826 46 219.763C46 219.701 46.0249 219.64 46.0693 219.596C46.1137 219.552 46.1739 219.527 46.2367 219.527H91.6896C91.7524 219.527 91.8126 219.552 91.857 219.596C91.9014 219.64 91.9263 219.701 91.9263 219.763C91.9263 219.826 91.9014 219.886 91.857 219.931C91.8126 219.975 91.7524 220 91.6896 220Z" fill="#CCCCCC"/>
</g>
</g>
<defs>
<linearGradient id="paint0_linear_1818_2184" x1="63.7516" y1="170.155" x2="200.335" y2="0.705434" gradientUnits="userSpaceOnUse">
<stop stop-color="#919EAB"/>
<stop offset="1" stop-color="#919EAB" stop-opacity="0"/>
</linearGradient>
<clipPath id="clip0_1818_2184">
<rect width="327" height="240" fill="white"/>
</clipPath>
<clipPath id="clip1_1818_2184">
<rect width="230" height="185" fill="white" transform="translate(46 35)"/>
</clipPath>
</defs>
</svg>
